<?xml version="1.0" encoding="UTF-8" standalone="no"?>
<!DOCTYPE svg PUBLIC "-//W3C//DTD SVG 1.1//EN"
 "http://www.w3.org/Graphics/SVG/1.1/DTD/svg11.dtd">
<!-- Generated by graphviz version 2.40.1 (20161225.0304)
 -->
<!-- Title: %0 Pages: 1 -->
<svg width="256pt" height="431pt"
 viewBox="0.00 0.00 255.81 431.00" xmlns="http://www.w3.org/2000/svg" xmlns:xlink="http://www.w3.org/1999/xlink">
<g id="graph0" class="graph" transform="scale(1 1) rotate(0) translate(4 427)">
<title>%0</title>
<polygon fill="#ffffff" stroke="transparent" points="-4,4 -4,-427 251.813,-427 251.813,4 -4,4"/>
<!-- blocks -->
<g id="node1" class="node">
<title>blocks</title>
<g id="a_node1"><a xlink:title="blocks">
<polygon fill="#ffffff" stroke="#000000" points="0,-298.5 0,-422.5 130.758,-422.5 130.758,-298.5 0,-298.5"/>
<text text-anchor="middle" x="65.379" y="-409.5" font-family="Helvetica,sans-Serif" font-size="10.00" fill="#000000">blocks</text>
<polyline fill="none" stroke="#000000" points="0,-402.5 130.758,-402.5 "/>
<text text-anchor="start" x="8" y="-389.5" font-family="Helvetica,sans-Serif" font-size="10.00" fill="#000000">+ id : integer</text>
<text text-anchor="start" x="8" y="-377.5" font-family="Helvetica,sans-Serif" font-size="10.00" fill="#000000">+ block_num : integer</text>
<text text-anchor="start" x="8" y="-365.5" font-family="Helvetica,sans-Serif" font-size="10.00" fill="#000000">+ block_time : date</text>
<text text-anchor="start" x="8" y="-353.5" font-family="Helvetica,sans-Serif" font-size="10.00" fill="#000000">+ producer_block_id : text</text>
<text text-anchor="start" x="8" y="-341.5" font-family="Helvetica,sans-Serif" font-size="10.00" fill="#000000">+ producer : text</text>
<text text-anchor="start" x="8" y="-329.5" font-family="Helvetica,sans-Serif" font-size="10.00" fill="#000000">+ status : enum</text>
<text text-anchor="start" x="8" y="-317.5" font-family="Helvetica,sans-Serif" font-size="10.00" fill="#000000">+ createdAt : date</text>
<text text-anchor="start" x="8" y="-305.5" font-family="Helvetica,sans-Serif" font-size="10.00" fill="#000000">+ updatedAt : date</text>
</a>
</g>
</g>
<!-- transactions -->
<g id="node2" class="node">
<title>transactions</title>
<g id="a_node2"><a xlink:title="transactions">
<polygon fill="#ffffff" stroke="#000000" points="16.383,-161.5 16.383,-249.5 114.375,-249.5 114.375,-161.5 16.383,-161.5"/>
<text text-anchor="middle" x="65.379" y="-236.5" font-family="Helvetica,sans-Serif" font-size="10.00" fill="#000000">transactions</text>
<polyline fill="none" stroke="#000000" points="16.383,-229.5 114.375,-229.5 "/>
<text text-anchor="start" x="24.383" y="-216.5" font-family="Helvetica,sans-Serif" font-size="10.00" fill="#000000">+ id : integer</text>
<text text-anchor="start" x="24.383" y="-204.5" font-family="Helvetica,sans-Serif" font-size="10.00" fill="#000000">+ trx_id : text</text>
<text text-anchor="start" x="24.383" y="-192.5" font-family="Helvetica,sans-Serif" font-size="10.00" fill="#000000">+ rawData : object</text>
<text text-anchor="start" x="24.383" y="-180.5" font-family="Helvetica,sans-Serif" font-size="10.00" fill="#000000">+ createdAt : date</text>
<text text-anchor="start" x="24.383" y="-168.5" font-family="Helvetica,sans-Serif" font-size="10.00" fill="#000000">+ updatedAt : date</text>
</a>
</g>
</g>
<!-- blocks&#45;&gt;transactions -->
<g id="edge1" class="edge">
<title>blocks&#45;&gt;transactions</title>
<path fill="none" stroke="#000000" stroke-dasharray="5,2" d="M28.8015,-298.4598C26.319,-288.4046 25.7443,-278.0072 28.478,-268 29.2983,-264.9972 30.3039,-261.992 31.4514,-259.0128"/>
<polygon fill="#000000" stroke="#000000" points="34.7578,-260.1865 35.5459,-249.621 28.3411,-257.3889 34.7578,-260.1865"/>
<text text-anchor="middle" x="56.3295" y="-271" font-family="Helvetica,sans-Serif" font-size="10.00" fill="#000000">transactions</text>
</g>
<!-- transactions&#45;&gt;blocks -->
<g id="edge2" class="edge">
<title>transactions&#45;&gt;blocks</title>
<path fill="none" stroke="#000000" stroke-dasharray="5,2" d="M78.9272,-249.5882C80.3539,-255.7207 81.575,-261.9812 82.379,-268 83.265,-274.633 83.4316,-281.513 83.0864,-288.3909"/>
<polygon fill="none" stroke="#000000" points="79.592,-288.1784 82.2387,-298.4373 86.5672,-288.7671 79.592,-288.1784"/>
<text text-anchor="middle" x="94.0475" y="-271" font-family="Helvetica,sans-Serif" font-size="10.00" fill="#000000">block</text>
</g>
<!-- actions -->
<g id="node3" class="node">
<title>actions</title>
<g id="a_node3"><a xlink:title="actions">
<polygon fill="#ffffff" stroke="#000000" points="6.945,-.5 6.945,-112.5 123.813,-112.5 123.813,-.5 6.945,-.5"/>
<text text-anchor="middle" x="65.379" y="-99.5" font-family="Helvetica,sans-Serif" font-size="10.00" fill="#000000">actions</text>
<polyline fill="none" stroke="#000000" points="6.945,-92.5 123.813,-92.5 "/>
<text text-anchor="start" x="14.945" y="-79.5" font-family="Helvetica,sans-Serif" font-size="10.00" fill="#000000">+ id : integer</text>
<text text-anchor="start" x="14.945" y="-67.5" font-family="Helvetica,sans-Serif" font-size="10.00" fill="#000000">+ contract_name : text</text>
<text text-anchor="start" x="14.945" y="-55.5" font-family="Helvetica,sans-Serif" font-size="10.00" fill="#000000">+ action_name : text</text>
<text text-anchor="start" x="14.945" y="-43.5" font-family="Helvetica,sans-Serif" font-size="10.00" fill="#000000">+ authorization : object</text>
<text text-anchor="start" x="14.945" y="-31.5" font-family="Helvetica,sans-Serif" font-size="10.00" fill="#000000">+ data : object</text>
<text text-anchor="start" x="14.945" y="-19.5" font-family="Helvetica,sans-Serif" font-size="10.00" fill="#000000">+ createdAt : date</text>
<text text-anchor="start" x="14.945" y="-7.5" font-family="Helvetica,sans-Serif" font-size="10.00" fill="#000000">+ updatedAt : date</text>
</a>
</g>
</g>
<!-- transactions&#45;&gt;actions -->
<g id="edge3" class="edge">
<title>transactions&#45;&gt;actions</title>
<path fill="none" stroke="#000000" stroke-dasharray="5,2" d="M44.821,-161.4335C42.714,-155.3523 40.908,-149.0995 39.704,-143 38.3995,-136.3916 38.2577,-129.5627 38.9246,-122.7739"/>
<polygon fill="#000000" stroke="#000000" points="42.3846,-123.3012 40.4394,-112.8865 35.4653,-122.2412 42.3846,-123.3012"/>
<text text-anchor="middle" x="56.2165" y="-134" font-family="Helvetica,sans-Serif" font-size="10.00" fill="#000000">actions</text>
</g>
<!-- actions&#45;&gt;transactions -->
<g id="edge6" class="edge">
<title>actions&#45;&gt;transactions</title>
<path fill="none" stroke="#000000" stroke-dasharray="5,2" d="M71.1966,-112.7808C71.6906,-122.8395 71.8471,-133.2265 71.379,-143 71.249,-145.7135 71.0875,-148.491 70.9018,-151.2944"/>
<polygon fill="none" stroke="#000000" points="67.395,-151.2562 70.1368,-161.4901 74.3753,-151.7801 67.395,-151.2562"/>
<text text-anchor="middle" x="95.8295" y="-134" font-family="Helvetica,sans-Serif" font-size="10.00" fill="#000000">transaction</text>
</g>
<!-- actions&#45;&gt;actions -->
<g id="edge4" class="edge">
<title>actions&#45;&gt;actions</title>
<path fill="none" stroke="#000000" stroke-dasharray="5,2" d="M124.0237,-63.5601C134.4972,-62.6424 141.813,-60.2891 141.813,-56.5 141.813,-54.1318 138.9553,-52.3245 134.255,-51.078"/>
<polygon fill="none" stroke="#000000" points="134.4513,-47.5649 124.0237,-49.4399 133.3446,-54.4769 134.4513,-47.5649"/>
<text text-anchor="middle" x="155.985" y="-53.5" font-family="Helvetica,sans-Serif" font-size="10.00" fill="#000000">parent</text>
</g>
<!-- actions&#45;&gt;actions -->
<g id="edge5" class="edge">
<title>actions&#45;&gt;actions</title>
<path fill="none" stroke="#000000" stroke-dasharray="5,2" d="M124.0228,-71.3991C148.7022,-72.2867 170.157,-67.3203 170.157,-56.5 170.157,-47.2013 154.3121,-42.2259 134.1924,-41.5738"/>
<polygon fill="#000000" stroke="#000000" points="134.0134,-38.0741 124.0228,-41.6009 134.0321,-45.0741 134.0134,-38.0741"/>
<text text-anchor="middle" x="200.441" y="-53.5" font-family="Helvetica,sans-Serif" font-size="10.00" fill="#000000">inline_actions</text>
</g>
</g>
</svg>
