<?xml version="1.0" encoding="UTF-8" standalone="no"?>
<!DOCTYPE svg PUBLIC "-//W3C//DTD SVG 1.1//EN"
 "http://www.w3.org/Graphics/SVG/1.1/DTD/svg11.dtd">
<!-- Generated by graphviz version 2.40.1 (20161225.0304)
 -->
<!-- Title: %0 Pages: 1 -->
<svg width="226pt" height="467pt"
 viewBox="0.00 0.00 225.71 467.00" xmlns="http://www.w3.org/2000/svg" xmlns:xlink="http://www.w3.org/1999/xlink">
<g id="graph0" class="graph" transform="scale(1 1) rotate(0) translate(4 463)">
<title>%0</title>
<polygon fill="#ffffff" stroke="transparent" points="-4,4 -4,-463 221.7085,-463 221.7085,4 -4,4"/>
<!-- fibos_blocks -->
<g id="node1" class="node">
<title>fibos_blocks</title>
<g id="a_node1"><a xlink:title="fibos_blocks">
<polygon fill="#ffffff" stroke="#000000" points="0,-322.5 0,-458.5 130.758,-458.5 130.758,-322.5 0,-322.5"/>
<text text-anchor="middle" x="65.379" y="-445.5" font-family="Helvetica,sans-Serif" font-size="10.00" fill="#000000">fibos_blocks</text>
<polyline fill="none" stroke="#000000" points="0,-438.5 130.758,-438.5 "/>
<text text-anchor="start" x="8" y="-425.5" font-family="Helvetica,sans-Serif" font-size="10.00" fill="#000000">+ id : serial</text>
<text text-anchor="start" x="8" y="-413.5" font-family="Helvetica,sans-Serif" font-size="10.00" fill="#000000">+ block_num : integer</text>
<text text-anchor="start" x="8" y="-401.5" font-family="Helvetica,sans-Serif" font-size="10.00" fill="#000000">+ block_time : date</text>
<text text-anchor="start" x="8" y="-389.5" font-family="Helvetica,sans-Serif" font-size="10.00" fill="#000000">+ producer_block_id : text</text>
<text text-anchor="start" x="8" y="-377.5" font-family="Helvetica,sans-Serif" font-size="10.00" fill="#000000">+ previous : text</text>
<text text-anchor="start" x="8" y="-365.5" font-family="Helvetica,sans-Serif" font-size="10.00" fill="#000000">+ producer : text</text>
<text text-anchor="start" x="8" y="-353.5" font-family="Helvetica,sans-Serif" font-size="10.00" fill="#000000">+ status : enum</text>
<text text-anchor="start" x="8" y="-341.5" font-family="Helvetica,sans-Serif" font-size="10.00" fill="#000000">+ createdAt : date</text>
<text text-anchor="start" x="8" y="-329.5" font-family="Helvetica,sans-Serif" font-size="10.00" fill="#000000">+ updatedAt : date</text>
</a>
</g>
</g>
<!-- fibos_transactions -->
<g id="node2" class="node">
<title>fibos_transactions</title>
<g id="a_node2"><a xlink:title="fibos_transactions">
<polygon fill="#ffffff" stroke="#000000" points="0,-161.5 0,-273.5 130.758,-273.5 130.758,-161.5 0,-161.5"/>
<text text-anchor="middle" x="65.379" y="-260.5" font-family="Helvetica,sans-Serif" font-size="10.00" fill="#000000">fibos_transactions</text>
<polyline fill="none" stroke="#000000" points="0,-253.5 130.758,-253.5 "/>
<text text-anchor="start" x="8" y="-240.5" font-family="Helvetica,sans-Serif" font-size="10.00" fill="#000000">+ id : serial</text>
<text text-anchor="start" x="8" y="-228.5" font-family="Helvetica,sans-Serif" font-size="10.00" fill="#000000">+ producer_block_id : text</text>
<text text-anchor="start" x="8" y="-216.5" font-family="Helvetica,sans-Serif" font-size="10.00" fill="#000000">+ trx_id : text</text>
<text text-anchor="start" x="8" y="-204.5" font-family="Helvetica,sans-Serif" font-size="10.00" fill="#000000">+ rawData : object</text>
<text text-anchor="start" x="8" y="-192.5" font-family="Helvetica,sans-Serif" font-size="10.00" fill="#000000">+ contract_action : text</text>
<text text-anchor="start" x="8" y="-180.5" font-family="Helvetica,sans-Serif" font-size="10.00" fill="#000000">+ createdAt : date</text>
<text text-anchor="start" x="8" y="-168.5" font-family="Helvetica,sans-Serif" font-size="10.00" fill="#000000">+ updatedAt : date</text>
</a>
</g>
</g>
<!-- fibos_blocks&#45;&gt;fibos_transactions -->
<g id="edge1" class="edge">
<title>fibos_blocks&#45;&gt;fibos_transactions</title>
<path fill="none" stroke="#000000" stroke-dasharray="5,2" d="M28.7349,-322.3102C26.6018,-312.2715 26.1472,-301.9572 28.478,-292 29.1411,-289.1673 29.9285,-286.3188 30.8166,-283.4746"/>
<polygon fill="#000000" stroke="#000000" points="34.1853,-284.4447 34.1895,-273.8499 27.5792,-282.1296 34.1853,-284.4447"/>
<text text-anchor="middle" x="56.3295" y="-295" font-family="Helvetica,sans-Serif" font-size="10.00" fill="#000000">transactions</text>
</g>
<!-- fibos_transactions&#45;&gt;fibos_blocks -->
<g id="edge2" class="edge">
<title>fibos_transactions&#45;&gt;fibos_blocks</title>
<path fill="none" stroke="#000000" stroke-dasharray="5,2" d="M79.6259,-273.8131C80.7521,-279.9188 81.7107,-286.0676 82.379,-292 83.1229,-298.6041 83.2638,-305.4366 82.9655,-312.2815"/>
<polygon fill="none" stroke="#000000" points="79.4721,-312.0649 82.2331,-322.2936 86.4534,-312.5756 79.4721,-312.0649"/>
<text text-anchor="middle" x="94.0475" y="-295" font-family="Helvetica,sans-Serif" font-size="10.00" fill="#000000">block</text>
</g>
<!-- fibos_actions -->
<g id="node3" class="node">
<title>fibos_actions</title>
<g id="a_node3"><a xlink:title="fibos_actions">
<polygon fill="#ffffff" stroke="#000000" points="3.0495,-.5 3.0495,-112.5 127.7085,-112.5 127.7085,-.5 3.0495,-.5"/>
<text text-anchor="middle" x="65.379" y="-99.5" font-family="Helvetica,sans-Serif" font-size="10.00" fill="#000000">fibos_actions</text>
<polyline fill="none" stroke="#000000" points="3.0495,-92.5 127.7085,-92.5 "/>
<text text-anchor="start" x="11.0495" y="-79.5" font-family="Helvetica,sans-Serif" font-size="10.00" fill="#000000">+ id : serial</text>
<text text-anchor="start" x="11.0495" y="-67.5" font-family="Helvetica,sans-Serif" font-size="10.00" fill="#000000">+ global_sequence : text</text>
<text text-anchor="start" x="11.0495" y="-55.5" font-family="Helvetica,sans-Serif" font-size="10.00" fill="#000000">+ trx_id : text</text>
<text text-anchor="start" x="11.0495" y="-43.5" font-family="Helvetica,sans-Serif" font-size="10.00" fill="#000000">+ contract_action : text</text>
<text text-anchor="start" x="11.0495" y="-31.5" font-family="Helvetica,sans-Serif" font-size="10.00" fill="#000000">+ rawData : object</text>
<text text-anchor="start" x="11.0495" y="-19.5" font-family="Helvetica,sans-Serif" font-size="10.00" fill="#000000">+ createdAt : date</text>
<text text-anchor="start" x="11.0495" y="-7.5" font-family="Helvetica,sans-Serif" font-size="10.00" fill="#000000">+ updatedAt : date</text>
</a>
</g>
</g>
<!-- fibos_transactions&#45;&gt;fibos_actions -->
<g id="edge3" class="edge">
<title>fibos_transactions&#45;&gt;fibos_actions</title>
<path fill="none" stroke="#000000" stroke-dasharray="5,2" d="M45.5487,-161.396C43.9782,-155.2503 42.6399,-149.035 41.704,-143 40.7019,-136.538 40.6659,-129.868 41.3059,-123.2323"/>
<polygon fill="#000000" stroke="#000000" points="44.8378,-123.2699 42.8264,-112.8677 37.9119,-122.2538 44.8378,-123.2699"/>
<text text-anchor="middle" x="55.7165" y="-134" font-family="Helvetica,sans-Serif" font-size="10.00" fill="#000000">action</text>
</g>
<!-- fibos_actions&#45;&gt;fibos_transactions -->
<g id="edge6" class="edge">
<title>fibos_actions&#45;&gt;fibos_transactions</title>
<path fill="none" stroke="#000000" stroke-dasharray="5,2" d="M67.8813,-112.6301C68.0856,-118.8275 68.2592,-125.0467 68.379,-131 68.508,-137.4084 68.5107,-144.0828 68.4256,-150.7566"/>
<polygon fill="none" stroke="#000000" points="64.9177,-151.1399 68.2252,-161.2052 71.9164,-151.2742 64.9177,-151.1399"/>
<text text-anchor="middle" x="92.8295" y="-134" font-family="Helvetica,sans-Serif" font-size="10.00" fill="#000000">transaction</text>
</g>
<!-- fibos_actions&#45;&gt;fibos_actions -->
<g id="edge4" class="edge">
<title>fibos_actions&#45;&gt;fibos_actions</title>
<path fill="none" stroke="#000000" stroke-dasharray="5,2" d="M128.0242,-63.4708C138.4881,-62.4955 145.7085,-60.1719 145.7085,-56.5 145.7085,-54.2051 142.888,-52.4368 138.218,-51.1952"/>
<polygon fill="none" stroke="#000000" points="138.4579,-47.6881 128.0242,-49.5292 137.3287,-54.5964 138.4579,-47.6881"/>
<text text-anchor="middle" x="159.8805" y="-53.5" font-family="Helvetica,sans-Serif" font-size="10.00" fill="#000000">parent</text>
</g>
<!-- fibos_actions&#45;&gt;fibos_actions -->
<g id="edge5" class="edge">
<title>fibos_actions&#45;&gt;fibos_actions</title>
<path fill="none" stroke="#000000" stroke-dasharray="5,2" d="M127.9122,-71.4485C152.7896,-72.0688 174.0525,-67.0859 174.0525,-56.5 174.0525,-47.4027 158.3493,-42.4435 138.1438,-41.6222"/>
<polygon fill="#000000" stroke="#000000" points="137.9362,-38.1208 127.9122,-41.5515 137.8878,-45.1206 137.9362,-38.1208"/>
<text text-anchor="middle" x="187.39" y="-53.5" font-family="Helvetica,sans-Serif" font-size="10.00" fill="#000000">action</text>
</g>
</g>
</svg>
